<?xml version="1.0" encoding="utf-8"?>
<!-- Generator: Adobe Illustrator 23.0.2, SVG Export Plug-In . SVG Version: 6.00 Build 0)  -->
<svg version="1.1" id="Layer_1" xmlns="http://www.w3.org/2000/svg" xmlns:xlink="http://www.w3.org/1999/xlink" x="0px" y="0px"
	 viewBox="0 0 16.9 9.9" style="enable-background:new 0 0 16.9 9.9;" xml:space="preserve">
<style type="text/css">
	.st0{fill:#FFF200;}
	.st1{fill:#FFFFFF;}
</style>
<g>
	<g>
		<path class="st0" d="M4.7,4.6C5.1,5.1,6,5.3,6.6,4.9c0.3-0.2,0.6-0.4,0.8-0.7C7.6,4,7.6,3.7,7.3,3.5C7,3.3,6.7,3.3,6.4,3.4
			c-0.2,0-0.2,0-0.3-0.1C6.6,3,7,2.7,7.4,2.4C7.8,2,8.1,1.6,8.5,1.2c0.1-0.1,0.1-0.3,0.1-0.4c-0.1,0-0.3-0.1-0.4-0.1
			C7.6,0.8,7.1,1,6.7,1.4C6.4,1.6,6.1,1.9,5.8,2.2C5.7,2.3,5.6,2.5,5.6,2.7C5.3,2.5,5.2,2.3,5.4,2c0.2-0.5,0.6-0.8,1-1.1
			c0.4-0.2,0.8-0.5,1.2-0.6c0.2-0.1,0.5-0.1,0.8-0.1c0.1,0,0.3,0.2,0.4,0.3C9,1.1,8.9,1.7,8.4,2.2C8,2.5,7.6,2.8,7.2,3.1
			c0.4,0.1,0.4,0.4,0.5,0.8c0.2,1-0.6,1.6-1.3,1.6c-0.7,0-1.2-0.3-1.7-0.8C4.7,4.7,4.7,4.7,4.7,4.6z"/>
		<path class="st0" d="M12.8,4.4c0-0.9,0.4-1.7,0.9-2.4c0.5-0.7,1.1-1.3,1.9-1.7c0.1-0.1,0.3,0,0.5,0.1c0.5,0.3,0.6,0.9,0.6,1.4
			c-0.1,1.2-0.6,2.3-1.5,3.2c-0.5,0.5-1.1,0.7-1.7,0.6c-0.1,0-0.3-0.1-0.4-0.3C12.9,5,12.8,4.7,12.8,4.4C12.8,4.4,12.8,4.4,12.8,4.4
			z M16.2,0.6C15.8,1,15.3,1.3,15,1.7c-0.7,0.7-1.3,1.5-1.5,2.5c-0.1,0.3-0.1,0.7,0.1,1c0,0.1,0.1,0.2,0.2,0.1
			c0.2,0,0.4-0.1,0.6-0.2c0.2-0.1,0.3-0.3,0.5-0.5c0.1-0.2,0.3-0.3,0.4-0.5c0.3-0.6,0.7-1.3,0.9-1.9C16.3,1.8,16.4,1.2,16.2,0.6z
			 M15.3,0.9C15.3,0.9,15.3,0.9,15.3,0.9c0.3-0.1,0.5-0.2,0.8-0.3c0,0,0-0.1-0.1-0.1C15.8,0.6,15.6,0.7,15.3,0.9z"/>
		<path class="st0" d="M12.6,0.7c-1.2,0.8-2.1,1.7-2.8,3.1c0.3-0.2,0.4-0.5,0.7-0.6c0.2-0.1,0.4-0.2,0.6-0.3
			c0.7-0.2,1.3,0.4,1.2,1.1c-0.1,0.6-0.4,1-0.9,1.3c-0.5,0.4-1,0.5-1.6,0.2C9.4,5.3,9.2,5,9.2,4.6C9.1,4,9.3,3.5,9.5,2.9
			c0.6-1.1,1.4-2,2.5-2.7c0.2-0.1,0.4-0.1,0.5,0.2C12.5,0.5,12.6,0.6,12.6,0.7z M11.5,3c0,0-0.1,0-0.1,0c-0.7,0.1-1.7,1-1.8,1.6
			C9.5,4.9,9.7,5.3,9.9,5.3c0.2,0,0.4,0.1,0.6,0c0.8-0.3,1.3-0.8,1.5-1.6C12.2,3.2,12.1,3,11.5,3z"/>
	</g>
	<g>
		<path class="st1" d="M7.2,7.6c0.1,0,0.3,0,0.4-0.1c0.3-0.1,0.7-0.3,1-0.3C8.9,7.1,9,6.9,9.1,6.6c0-0.2,0.1-0.4,0.2-0.6
			c0-0.1,0.1-0.1,0.1-0.2C9.5,6,9.6,6.4,9.6,6.6C9.5,6.9,9.4,7.2,9.3,7.5c0,0,0,0.1,0,0.2c0.1-0.1,0.2-0.2,0.2-0.3
			c0.2-0.3,0.4-0.6,0.6-0.9c0.1-0.2,0.1-0.4,0.2-0.7c0.4-1.4,0.7-2.9,1.3-4.2c0-0.1,0.1-0.2,0.1-0.3c0.1-0.1,0.2-0.2,0.3-0.1
			c0.1,0,0.2,0.2,0.2,0.3c0,0.1,0,0.2,0,0.3c0,0,0,0-0.1,0c0-0.1,0-0.2-0.1-0.3c0,0-0.1-0.1-0.1-0.1c0,0-0.1,0.1-0.1,0.1
			c-0.1,0.3-0.1,0.7-0.2,1.1c0,0.2-0.1,0.4-0.2,0.6c-0.4,1.4-0.8,2.7-1.1,4.2c0,0.1,0,0.1,0,0.2c0-0.1,0.1-0.1,0.1-0.2
			C11,6.7,11.3,6,11.8,5.4c0.1-0.1,0.1-0.2,0.2-0.2c0.3-0.2,0.6-0.1,0.7,0.2c0,0.3,0.1,0.7,0,1c-0.2,0.7-0.6,1.3-1.2,1.7
			c-0.2,0.1-0.4,0.2-0.7,0.3c0.1-0.1,0.2-0.1,0.4-0.2c-0.1,0-0.1,0-0.1,0c0.2-0.3,0.5-0.5,0.7-0.8c0,0,0,0,0,0
			c-0.1,0.1-0.1,0.1-0.2,0.2c0,0,0,0,0,0c0.1-0.2,0.3-0.4,0.4-0.6s0.2-0.4,0.3-0.6s0.1-0.4,0.1-0.7c0,0,0,0-0.1,0
			c-0.1,0.1-0.1,0.1-0.2,0.2c-0.4,0.7-0.8,1.4-1.2,2c-0.1,0.2-0.2,0.4-0.3,0.6c-0.1,0.1-0.2,0.2-0.4,0.2C10,8.7,10,8.5,10,8.3
			c0-0.2,0-0.4,0-0.5C9.9,7.9,9.7,8.1,9.6,8.2C9.5,8.3,9.3,8.4,9.1,8.3C8.9,8.2,8.8,8,8.9,7.8c0-0.1,0-0.2,0-0.4
			C8.8,7.5,8.7,7.5,8.6,7.6c0.1,0,0.1,0,0.2,0C8.3,7.9,7.7,8.1,7,8.1C7,8.2,6.9,8.4,6.9,8.5c0-0.1,0-0.2,0-0.2
			C6.7,8.2,6.7,8.1,6.7,7.9C6.6,8,6.5,8.1,6.4,8.1C6.3,8.3,6.2,8.4,6,8.6C5.7,8.7,5.5,8.6,5.4,8.3c0-0.2,0-0.4-0.1-0.6
			C5.3,7.8,5.2,7.9,5.1,8C5,8.1,4.8,8.2,4.6,8.1C4.4,8.1,4.3,7.9,4.4,7.7c0-0.8,0.3-1.5,0.9-2.1c0.2-0.2,0.6-0.2,0.8,0
			c-0.1,0-0.2,0.1-0.2,0c-0.2,0-0.3,0.1-0.4,0.3C5.2,6.3,5.1,6.6,4.9,7c0,0.1,0,0.2-0.1,0.2c0,0,0,0,0.1,0C5,7.2,5.1,7.1,5.1,7
			c0.1-0.3,0.3-0.6,0.4-0.9C5.6,6,5.6,5.9,5.8,5.9C6,5.9,6,6.1,6,6.2c0,0.5-0.1,0.9-0.1,1.4c0,0.1,0,0.2,0,0.4C5.9,7.9,6,7.8,6,7.8
			C6.2,7.5,6.3,7.2,6.5,7c0.1-0.2,0.2-0.4,0.3-0.6C6.9,6.2,6.9,6,7,5.8c0.3-1.1,0.6-2.2,0.8-3.3c0-0.1,0.1-0.2,0.1-0.4
			c0.2,0.4,0.3,0.7,0.2,1.1C7.9,4.2,7.6,5.3,7.4,6.4c0,0,0,0.1,0,0.1c0,0,0,0,0,0c0.5-0.5,1-1,1.5-1.4C9,5.3,9,5.7,8.8,5.9
			C8.4,6.3,7.9,6.6,7.5,7C7.4,7.1,7.3,7.2,7.2,7.3C7.2,7.4,7.1,7.5,7.2,7.6C7.1,7.6,7.1,7.6,7.2,7.6z"/>
		<path class="st1" d="M2,2.9C2,2.9,1.9,2.9,2,2.9C1.4,4,0.9,5.1,0.7,6.3C0.6,6.8,0.5,7.3,0.6,7.9c0,0.2,0.1,0.3,0.1,0.5
			c0,0-0.1-0.1-0.1-0.1c0,0,0,0.1,0,0.1c0,0,0,0-0.1,0c0-0.2,0-0.3-0.1-0.5c0-0.2-0.1-0.4-0.1-0.5C0.2,6.7,0.2,6.1,0.4,5.5
			c0.3-1.1,0.8-2.2,1.3-3.2C1.8,2.2,1.9,2.1,2,2c0.1-0.1,0.2-0.1,0.2,0c0.1,0.1,0.2,0.3,0.2,0.4c0.1,0.7,0.2,1.5,0.2,2.2
			c0.1,1,0.1,1.9,0.2,2.9c0,0.4,0.1,0.8,0.1,1.1c0,0.1,0,0.1,0,0.2c0,0,0,0,0.1,0c0-0.2,0.1-0.4,0.1-0.6c0.1-0.9,0.3-1.9,0.4-2.8
			c0.1-0.9,0.3-1.7,0.5-2.6c0.1-0.4,0.3-0.7,0.4-1.1c0-0.1,0.1-0.2,0.2-0.2c0,0.1-0.1,0.1-0.1,0.1C4.6,1.9,4.5,2,4.5,2.1
			c0,0.2-0.1,0.3-0.1,0.5C4.4,3.1,4.3,3.6,4.3,4c0-0.2,0.1-0.4,0.1-0.6c0,0,0,0,0,0c0,0.3-0.1,0.6-0.1,0.8C4.2,5.4,4,6.4,3.8,7.5
			C3.7,8.1,3.6,8.7,3.5,9.2c0,0.1-0.1,0.3-0.2,0.4c-0.2,0.3-0.5,0.3-0.6,0C2.6,9.4,2.5,9.1,2.5,8.9C2.4,7.7,2.3,6.5,2.2,5.3
			C2.1,4.5,2.1,3.7,2,2.9C2,2.9,2,2.9,2,2.9z"/>
		<path class="st1" d="M9.4,5.3c0.1-0.1,0.1-0.2,0.2-0.4C9.7,5,9.8,5,9.9,5.1S10,5.2,10,5.3C9.9,5.5,9.8,5.5,9.7,5.4
			C9.6,5.4,9.5,5.3,9.4,5.3z"/>
	</g>
</g>
</svg>
